<svg width="173" height="42" viewBox="0 0 173 42" fill="none" xmlns="http://www.w3.org/2000/svg">
<path d="M19.7979 0.751953V1.60645C18.2679 2.01335 17.2751 2.46908 16.8193 2.97363C16.3799 3.46191 16.1602 4.56868 16.1602 6.29395V32.1973C16.1602 35.0618 15.4359 37.2917 13.9873 38.8867C12.5387 40.498 10.4961 41.3037 7.85938 41.3037C5.80859 41.3037 4.0752 40.7422 2.65918 39.6191C1.24316 38.4961 0.421224 37.0231 0.193359 35.2002H1.04785C2.02441 37.0719 3.47298 38.0078 5.39355 38.0078C6.93978 38.0078 8.03841 37.4788 8.68945 36.4209C9.35677 35.3792 9.69043 33.5889 9.69043 31.0498V5.80566C9.69043 4.40592 9.44629 3.4375 8.95801 2.90039C8.486 2.36328 7.48503 1.93197 5.95508 1.60645V0.751953H19.7979ZM79.0488 30H61.4219V29.1455C62.9518 28.8363 63.9447 28.3968 64.4004 27.8271C64.8724 27.2412 65.1084 26.3135 65.1084 25.0439V5.61035C65.1084 4.27572 64.848 3.33171 64.3271 2.77832C63.8226 2.20866 62.8542 1.81803 61.4219 1.60645V0.751953H76.8516C80.0091 0.751953 82.4749 1.35417 84.249 2.55859C86.0231 3.74674 86.9102 5.43132 86.9102 7.6123C86.9102 10.9977 84.7454 13.2926 80.416 14.4971V14.5947C85.9499 15.6038 88.7168 18.1755 88.7168 22.3096C88.7168 24.6045 87.8379 26.46 86.0801 27.876C84.3223 29.292 81.9785 30 79.0488 30ZM71.5537 2.41211V14.1553H73.9219C75.7936 14.1553 77.2585 13.6344 78.3164 12.5928C79.3743 11.5511 79.9033 10.1025 79.9033 8.24707C79.9033 4.3571 77.7549 2.41211 73.458 2.41211H71.5537ZM75.0205 15.791H71.5537V24.751C71.5537 26.0531 71.8792 26.9808 72.5303 27.5342C73.1813 28.0713 74.2718 28.3398 75.8018 28.3398C77.641 28.3398 79.0814 27.7946 80.123 26.7041C81.181 25.5973 81.71 24.0755 81.71 22.1387C81.71 20.2181 81.1159 18.68 79.9277 17.5244C78.7559 16.3688 77.1201 15.791 75.0205 15.791ZM93.0615 0.751953H108.076C111.169 0.751953 113.602 1.4681 115.376 2.90039C117.166 4.33268 118.062 6.19629 118.062 8.49121C118.062 10.9652 117.069 12.9915 115.083 14.5703C113.114 16.1491 110.396 16.9385 106.929 16.9385C105.724 16.9385 104.487 16.8571 103.218 16.6943V25.0439C103.218 26.3623 103.478 27.3145 103.999 27.9004C104.536 28.4863 105.496 28.9014 106.88 29.1455V30H93.0615V29.1455C94.5426 28.8525 95.5273 28.4131 96.0156 27.8271C96.5202 27.2249 96.7725 26.1833 96.7725 24.7021V5.61035C96.7725 4.27572 96.5365 3.35612 96.0645 2.85156C95.5924 2.34701 94.5915 1.93197 93.0615 1.60645V0.751953ZM105.684 2.41211H103.218V14.9609C103.966 15.1888 104.683 15.3027 105.366 15.3027C107.157 15.3027 108.556 14.7331 109.565 13.5938C110.575 12.4382 111.079 10.8268 111.079 8.75977C111.079 6.87174 110.583 5.3418 109.59 4.16992C108.597 2.99805 107.295 2.41211 105.684 2.41211ZM135.224 0.751953V1.60645C133.661 1.99707 132.652 2.44466 132.196 2.94922C131.741 3.45378 131.513 4.30013 131.513 5.48828V25.1904C131.513 26.4111 131.83 27.2412 132.465 27.6807C133.116 28.1201 134.337 28.3398 136.127 28.3398C137.999 28.3398 139.447 27.9329 140.473 27.1191C141.514 26.2891 142.597 24.7184 143.72 22.4072H144.574L143.72 30H121.381V29.1455C122.943 28.7549 123.944 28.291 124.384 27.7539C124.84 27.2168 125.067 26.1019 125.067 24.4092V5.70801C125.067 4.38965 124.823 3.47005 124.335 2.94922C123.863 2.41211 122.878 1.96452 121.381 1.60645V0.751953H135.224ZM168.401 4.75586L161.492 14.5947V25.0439C161.492 26.346 161.753 27.29 162.273 27.876C162.794 28.4619 163.771 28.8851 165.203 29.1455V30H151.336V29.1455C152.687 28.9502 153.639 28.5352 154.192 27.9004C154.762 27.2493 155.047 26.2321 155.047 24.8486V16.3037L147.454 4.6582C146.705 3.53516 146.046 2.77018 145.477 2.36328C144.923 1.95638 144.199 1.7041 143.304 1.60645V0.751953H156.634V1.60645C155.218 1.67155 154.51 2.14355 154.51 3.02246C154.51 3.57585 154.786 4.28385 155.34 5.14648L160.394 12.959L164.837 6.53809C165.537 5.52897 165.887 4.63379 165.887 3.85254C165.887 2.71322 165.138 1.96452 163.641 1.60645V0.751953H172.698V1.60645C171.185 1.75293 169.752 2.80273 168.401 4.75586Z" fill="#232443"/>
<path d="M56.7354 15.4004C56.7354 19.8763 55.238 23.5547 52.2432 26.4355C49.2484 29.3164 45.4235 30.7568 40.7686 30.7568C36.1299 30.7568 32.3213 29.3164 29.3428 26.4355C26.3643 23.5547 24.875 19.8763 24.875 15.4004C24.875 10.9245 26.3643 7.23796 29.3428 4.34082C32.3376 1.44368 36.1462 -0.00488281 40.7686 -0.00488281C45.4235 -0.00488281 49.2484 1.44368 52.2432 4.34082C55.238 7.23796 56.7354 10.9245 56.7354 15.4004ZM49.7285 15.5957C49.7285 11.0547 48.9635 7.59603 47.4336 5.21973C45.9199 2.84342 43.6982 1.65527 40.7686 1.65527C37.8714 1.65527 35.666 2.84342 34.1523 5.21973C32.6387 7.59603 31.8818 11.071 31.8818 15.6445C31.8818 19.8926 32.6468 23.1966 34.1768 25.5566C35.7067 27.9167 37.904 29.0967 40.7686 29.0967C43.5843 29.0967 45.7816 27.9248 47.3604 25.5811C48.9391 23.2373 49.7285 19.9089 49.7285 15.5957Z" fill="#EE4F3C"/>
</svg>
